HIERARCHY
ROOT root
{
	OFFSET	0	13.1	24.9
	CHANNELS 6  Xposition Yposition Zposition Xrotation Yrotation Zrotation
	JOINT spine_1
	{
		OFFSET	0	9.99999	0
		CHANNELS 3  Xrotation Yrotation Zrotation
		JOINT spine_2
		{
			OFFSET	0	112	-10
			CHANNELS 3  Xrotation Yrotation Zrotation
			JOINT spine_3
			{
				OFFSET	0	206.5	19.3
				CHANNELS 3  Xrotation Yrotation Zrotation
				JOINT spine_4
				{
					OFFSET	0	110.4	14.6
					CHANNELS 3  Xrotation Yrotation Zrotation
					JOINT neck_1
					{
						OFFSET	0	71.8	-50.3
						CHANNELS 3  Xrotation Yrotation Zrotation
						JOINT neck_2
						{
							OFFSET	0	86.2	-25.8
							CHANNELS 3  Xrotation Yrotation Zrotation
							JOINT head_ee
							{
								OFFSET	0	179.8	-8.7
								CHANNELS 3  Xrotation Yrotation Zrotation
								End Site
								{
									OFFSET	1	0	0
								}
							}
						}
					}
					JOINT left_clavicle
					{
						OFFSET	-43.2	22.4	-70.8
						CHANNELS 3  Xrotation Yrotation Zrotation
						JOINT left_shoulder
						{
							OFFSET	-93.9	-5.79999	48.7
							CHANNELS 3  Xrotation Yrotation Zrotation
							JOINT left_elbow
							{
								OFFSET	-291.4	-30.8	15.2
								CHANNELS 3  Xrotation Yrotation Zrotation
								JOINT left_lowarm_twist
								{
									OFFSET	-110.7	-3.89999	13.6
									CHANNELS 3  Xrotation Yrotation Zrotation
									JOINT left_hand
									{
										OFFSET	-110.7	-3.89999	13.6
										CHANNELS 3  Xrotation Yrotation Zrotation
										JOINT left_ee
										{
											OFFSET	-80.8	-5.10001	12.1
											CHANNELS 3  Xrotation Yrotation Zrotation
											End Site
											{
												OFFSET	1	0	0
											}
										}
									}
								}
							}
						}
					}
					JOINT right_clavicle
					{
						OFFSET	43.2	22.4	-70.8
						CHANNELS 3  Xrotation Yrotation Zrotation
						JOINT right_shoulder
						{
							OFFSET	93.9	-5.79999	48.7
							CHANNELS 3  Xrotation Yrotation Zrotation
							JOINT right_elbow
							{
								OFFSET	291.4	-30.8	15.2
								CHANNELS 3  Xrotation Yrotation Zrotation
								JOINT right_lowarm_twist
								{
									OFFSET	110.7	-3.89999	13.6
									CHANNELS 3  Xrotation Yrotation Zrotation
									JOINT right_hand
									{
										OFFSET	110.7	-3.89999	13.6
										CHANNELS 3  Xrotation Yrotation Zrotation
										JOINT right_ee
										{
											OFFSET	80.8	-5.10001	12.1
											CHANNELS 3  Xrotation Yrotation Zrotation
											End Site
											{
												OFFSET	1	0	0
											}
										}
									}
								}
							}
						}
					}
				}
			}
		}
	}
	JOINT left_hip
	{
		OFFSET	-82.8	-127.5	0.300001
		CHANNELS 3  Xrotation Yrotation Zrotation
		JOINT left_knee
		{
			OFFSET	-28.2	-396.7	2.2
			CHANNELS 3  Xrotation Yrotation Zrotation
			JOINT left_ankle
			{
				OFFSET	-11.7	-411.3	35.4
				CHANNELS 3  Xrotation Yrotation Zrotation
				JOINT left_toes
				{
					OFFSET	0	-60	-88.6
					CHANNELS 3  Xrotation Yrotation Zrotation
					JOINT left_foot_ee
					{
						OFFSET	-22.5	-16.5	-42.2
						CHANNELS 3  Xrotation Yrotation Zrotation
						End Site
						{
							OFFSET	1	0	0
						}
					}
				}
			}
		}
	}
	JOINT right_hip
	{
		OFFSET	82.8	-127.5	0.300001
		CHANNELS 3  Xrotation Yrotation Zrotation
		JOINT right_knee
		{
			OFFSET	28.2	-396.7	2.2
			CHANNELS 3  Xrotation Yrotation Zrotation
			JOINT right_ankle
			{
				OFFSET	11.7	-411.3	35.4
				CHANNELS 3  Xrotation Yrotation Zrotation
				JOINT right_toes
				{
					OFFSET	0	-60	-88.6
					CHANNELS 3  Xrotation Yrotation Zrotation
					JOINT right_foot_ee
					{
						OFFSET	22.5	-16.5	-42.2
						CHANNELS 3  Xrotation Yrotation Zrotation
						End Site
						{
							OFFSET	1	0	0
						}
					}
				}
			}
		}
	}
}
MOTION
Frames: 16
Frame Time: 0.02
3445.49 727.268 -823.461 -17.6194 54.5886 14.7891 2.67004 0.0483986 0.00959604 2.67004 0.0476899 0.0126563 2.67005 0.0449602 0.0203245 2.67005 0.0476059 0.0129688 -6.43007 -18.2627 3.18475 -6.28433 -36.1854 -0.403988 -0.0 0.0 -0.0 -4.14908 23.37 -3.00217 -0.2741 -40.6183 85.0737 1.0261 -26.9436 0.245816 -6.94604 -0.295893 0.836671 1.19797 10.2743 12.0078 -0.0 0.0 -0.0 11.4634 18.2961 -22.8182 43.6325 -54.7751 -39.6651 0.204954 5.79742 -0.0103779 84.5572 4.37358 8.84551 -2.6439 -28.9467 2.93121 0.0 0.0 0.0 22.0517 -8.23131 -5.39793 -16.6038 0.320614 2.51894 22.6602 2.10355 -3.06557 -18.6112 0.0 0.0 -0.0 0.0 -0.0 14.6093 -1.65514 3.64859 -19.3751 -0.30255 -2.94373 11.0164 -29.9279 1.68389 39.7334 -0.0 -0.0 0.0 0.0 0.0 
3433.19 721.519 -819.28 -15.9383 54.4887 13.3441 2.63969 0.0396727 -0.0183288 2.63969 0.0407586 -0.0157672 2.63968 0.0428009 -0.00882907 2.63968 0.0408694 -0.0154779 -7.56201 -18.325 1.38225 -7.64196 -35.1731 -2.63179 -0.0 0.0 -0.0 -4.22245 23.303 -3.11973 0.0690393 -41.2438 86.0499 0.989602 -26.1145 0.229515 -7.08855 -0.30302 0.853444 1.2257 11.2737 12.5544 -0.0 0.0 -0.0 11.0887 16.5333 -22.0631 43.7611 -54.4173 -40.8747 0.20578 5.82061 -0.0104615 84.6353 4.38291 8.84918 -2.66772 -28.5799 3.25369 0.0 0.0 0.0 22.4618 -5.65832 -5.1169 -19.4877 0.301382 2.96096 25.6086 4.57745 -3.40302 -18.0042 0.0 0.0 -0.0 0.0 -0.0 14.4435 -1.61619 3.82054 -21.2655 -0.278452 -3.23278 12.1675 -29.5774 1.84852 40.1315 -0.0 -0.0 0.0 0.0 0.0 
3418.52 717.443 -810.565 -15.307 53.759 13.6751 2.70815 -0.0523074 0.0378603 2.70815 -0.0546106 0.0344551 2.70811 -0.0595154 0.0250476 2.70812 -0.0548127 0.0341326 -9.94691 -18.095 1.18427 -10.3945 -34.8935 -3.6087 -0.0 0.0 -0.0 -4.01704 23.4706 -2.79606 -2.98571 -41.5457 84.4367 0.950962 -25.2237 0.212776 -6.75066 -0.28619 0.813645 1.27877 10.5367 12.634 -0.0 0.0 -0.0 10.3888 13.164 -20.6242 43.9704 -55.3323 -44.3707 0.187095 5.29525 -0.00865174 84.5051 4.36736 8.84306 -2.8864 -29.0936 4.15323 0.0 0.0 0.0 23.8457 -0.148263 -5.55326 -21.4524 0.275551 3.26131 26.1964 8.33253 -3.46982 -16.9369 0.0 0.0 -0.0 0.0 -0.0 14.4699 -1.2096 4.11466 -22.3124 -0.261006 -3.39247 12.9164 -28.6664 1.94535 40.1448 -0.0 -0.0 0.0 0.0 0.0 
3409.57 717.969 -799.418 -15.2874 53.8608 13.4143 2.71736 0.00729332 -0.0562477 2.71737 0.0108577 -0.0556696 2.71735 0.0198184 -0.0531434 2.71735 0.0111767 -0.0556064 -9.44916 -18.231 0.851375 -9.82282 -34.8719 -3.79257 -0.0 0.0 -0.0 -3.76109 22.9316 -2.56169 -2.44864 -41.5847 84.645 0.956539 -25.3531 0.215159 -6.72771 -0.285056 0.810939 1.26938 10.7529 12.6511 -0.0 0.0 -0.0 10.1403 13.3241 -20.0676 45.031 -54.947 -43.758 0.185103 5.23921 -0.00846898 84.6144 4.38041 8.8482 -2.90196 -28.9606 4.30964 0.0 0.0 0.0 23.7907 1.01487 -5.01332 -21.6723 0.27202 3.29486 26.0065 8.32846 -3.44812 -17.0466 0.0 0.0 -0.0 0.0 -0.0 13.9304 2.8981 4.27515 -22.7567 -0.25272 -3.46015 12.8736 -28.7141 1.93981 40.0129 -0.0 -0.0 0.0 0.0 0.0 
3400.4 717.256 -795.59 -15.0687 53.0296 13.4478 2.56802 0.00710415 -0.0643048 2.56803 0.0111816 -0.0637225 2.56801 0.0216144 -0.0609787 2.56801 0.0117127 -0.063627 -9.47932 -18.3836 0.337742 -9.86049 -34.8199 -4.34281 -0.0 0.0 -0.0 -3.41234 22.4634 -2.17348 -2.66729 -41.6333 83.4548 0.950538 -25.2139 0.212596 -6.81785 -0.289518 0.821567 1.26726 10.7955 12.6527 -0.0 0.0 -0.0 10.3934 13.1122 -20.6358 45.4661 -54.7757 -43.4 0.189554 5.36446 -0.00888023 84.6925 4.38975 8.85186 -2.87253 -28.8761 4.19763 0.0 0.0 0.0 23.8266 1.72697 -5.01582 -22.0204 0.266166 3.34796 27.6403 8.19705 -3.63242 -16.7053 0.0 0.0 -0.0 0.0 -0.0 13.9281 5.5695 3.79714 -23.2084 -0.243759 -3.52888 12.9019 -28.3569 1.93929 39.8909 -0.0 -0.0 0.0 0.0 0.0 
3393.53 718.371 -784.601 -15.1809 53.3289 13.4614 2.59026 -0.0117776 -0.0986165 2.59027 -0.0054785 -0.0991661 2.59028 0.0110368 -0.0987021 2.59026 -0.00468985 -0.0992065 -10.2318 -18.0193 0.341479 -10.7076 -34.2267 -4.49499 -0.0 0.0 -0.0 -2.96882 21.8928 -1.66186 -2.63983 -42.2794 83.1203 0.944116 -25.0645 0.209867 -6.74628 -0.285974 0.813129 1.26651 10.8446 12.6656 -0.0 0.0 -0.0 10.1551 13.002 -20.1104 45.4123 -54.877 -44.2309 0.196451 5.55843 -0.00953666 84.8941 4.41385 8.86124 -2.87134 -29.014 4.11595 0.0 0.0 0.0 24.2292 2.53344 -3.8338 -22.3493 0.260339 3.39809 27.3231 8.96176 -3.59876 -16.8878 0.0 0.0 -0.0 0.0 -0.0 14.0895 8.71659 4.15696 -23.6397 -0.234696 -3.59445 12.4846 -29.0003 1.88723 39.8687 -0.0 -0.0 0.0 0.0 0.0 
3386.49 713.99 -784.136 -15.1814 53.6103 13.5254 2.5085 -0.0212316 -0.0804064 2.5085 -0.0160721 -0.0815944 2.50852 -0.0022046 -0.0831331 2.50851 -0.0153062 -0.0817416 -9.16173 -17.4767 1.63897 -9.45924 -33.9467 -2.71707 -0.0 0.0 -0.0 -3.00175 22.4344 -1.60155 -1.1647 -42.515 80.9704 0.927284 -24.6713 0.202789 -7.226 -0.309934 0.869605 1.2031 11.9665 12.6575 -0.0 0.0 -0.0 10.1402 12.5444 -20.0907 46.0417 -54.8194 -44.0613 0.188215 5.32678 -0.00875549 85.1643 4.44621 8.87368 -3.21514 -29.0223 5.96098 0.0 0.0 0.0 24.6662 3.77463 -3.75206 -23.8338 0.230458 3.62392 31.2247 9.3031 -4.0242 -17.9159 0.0 0.0 -0.0 0.0 -0.0 14.6976 9.24398 3.21742 -25.0428 -0.201804 -3.80725 12.1562 -29.7217 1.84873 40.1018 -0.0 -0.0 0.0 0.0 0.0 
3373.66 715.966 -782.765 -15.0369 52.926 13.538 2.58904 -0.0379871 -0.193127 2.58906 -0.025621 -0.195153 2.58914 0.00708939 -0.1967 2.58909 -0.0240646 -0.195351 -8.51814 -17.2057 1.35842 -8.71449 -33.1752 -2.70382 -0.0 0.0 -0.0 -3.0852 22.4161 -1.72261 -1.40793 -43.3968 80.8641 0.885598 -23.6868 0.185714 -7.26957 -0.312133 0.874724 1.15487 12.8697 12.669 -0.0 0.0 -0.0 10.0692 11.8229 -19.9523 45.2341 -55.5167 -44.0134 0.181071 5.12568 -0.00810477 84.9055 4.41521 8.86176 -3.46628 -29.0744 7.28649 0.0 0.0 0.0 24.8382 5.73581 -3.99425 -25.841 0.180766 3.92794 34.3703 9.56396 -4.34696 -18.4549 0.0 0.0 -0.0 0.0 -0.0 14.919 10.0796 2.10638 -25.898 -0.179201 -3.93654 11.9254 -30.2006 1.82117 40.0971 -0.0 -0.0 0.0 0.0 0.0 
3362.95 715.702 -784.313 -14.8548 53.2136 13.7898 2.55236 -0.158747 -0.178711 2.55237 -0.147054 -0.18845 2.55286 -0.113642 -0.210294 2.55283 -0.145428 -0.189708 -8.06192 -16.8365 1.77168 -8.18401 -32.7155 -2.05644 -0.0 0.0 -0.0 -3.28357 22.4549 -1.99391 -1.33113 -43.9855 80.8994 0.873797 -23.4053 0.181 -7.34789 -0.316097 0.883923 1.12606 13.4355 12.6851 -0.0 0.0 -0.0 10.0077 11.6386 -19.8211 44.8363 -55.7783 -43.9358 0.177289 5.01918 -0.00777037 84.7192 4.39293 8.8531 -3.66595 -29.1638 8.31347 0.0 0.0 0.0 24.6892 6.71298 -4.61541 -27.3288 0.137074 4.15208 36.7183 9.7143 -4.5753 -18.8282 0.0 0.0 -0.0 0.0 -0.0 15.5073 10.8661 1.10035 -26.5887 -0.159538 -4.04072 11.7415 -30.4263 1.79707 40.0946 -0.0 -0.0 0.0 0.0 0.0 
3350.52 714.88 -783.977 -14.605 53.1976 13.3138 2.61 -0.257831 -0.169483 2.60998 -0.246524 -0.185546 2.61079 -0.212435 -0.22377 2.61081 -0.245109 -0.187411 -6.70656 -16.5649 1.96589 -6.64673 -32.1887 -1.37332 -0.0 0.0 -0.0 -3.04699 21.8064 -1.79026 -1.45934 -44.7209 80.7728 0.747287 -20.3137 0.133879 -6.45455 -0.271635 0.778689 1.18359 13.5938 13.1123 -0.0 0.0 -0.0 10.0736 8.99741 -20.0039 42.4033 -55.7808 -44.8041 0.201559 5.70203 -0.0100378 85.1575 4.44539 8.87337 -3.65374 -29.0381 8.32386 0.0 0.0 0.0 24.5018 8.46065 -4.13237 -28.5458 0.0970136 4.33455 38.3554 10.1828 -4.73052 -21.3058 0.0 0.0 -0.0 0.0 -0.0 18.421 15.0767 2.76936 -32.4988 0.0597296 -4.92083 8.10529 -29.8324 1.24886 39.6482 -0.0 -0.0 0.0 0.0 0.0 
3332.56 714.371 -780.555 -14.1533 53.4725 12.5593 2.63597 -0.43096 -0.101749 2.63588 -0.423612 -0.128967 2.63687 -0.396533 -0.197081 2.63706 -0.422682 -0.131982 -5.98722 -16.4576 1.88784 -5.84094 -31.8452 -1.21023 -0.0 0.0 -0.0 -2.94542 20.8138 -1.83986 -1.62915 -45.1583 79.3265 0.669743 -18.3544 0.108203 -6.1506 -0.256883 0.742729 1.20327 13.3899 13.1672 -0.0 0.0 -0.0 10.0621 7.57104 -19.9813 41.378 -55.7676 -44.9149 0.24668 6.96706 -0.0150165 84.7175 4.39272 8.85302 -3.68184 -28.9725 8.51654 0.0 0.0 0.0 23.9486 9.96902 -3.08619 -29.7009 0.0554044 4.50695 41.3722 10.306 -4.99742 -21.2389 0.0 0.0 -0.0 0.0 -0.0 19.643 17.6989 2.88941 -34.2255 0.140835 -5.17333 8.42327 -30.045 1.29861 39.6683 -0.0 -0.0 0.0 0.0 0.0 
3319.47 714.695 -778.149 -14.5008 53.815 12.8006 2.69925 -0.227227 -0.0641597 2.69923 -0.222683 -0.0784888 2.69954 -0.206808 -0.113924 2.69959 -0.222205 -0.0798324 -6.95736 -15.9101 -0.490967 -6.95788 -29.2499 -3.76261 -0.0 0.0 -0.0 -1.93737 20.7772 -0.383593 -4.05426 -46.0342 75.6035 0.605402 -16.694 0.0888269 -7.09315 -0.303251 0.853985 0.865567 12.1752 10.5483 -0.0 0.0 -0.0 8.83384 6.70239 -17.35 37.5274 -56.3879 -48.3596 0.191405 5.41652 -0.00905409 84.9145 4.41629 8.86218 -3.79401 -29.2012 8.98509 0.0 0.0 0.0 23.1948 10.9394 -2.77048 -28.7382 0.0903242 4.36332 37.3934 10.2758 -4.64237 -23.9732 0.0 0.0 -0.0 0.0 -0.0 20.8722 19.7103 2.63669 -36.7559 0.273382 -5.53876 7.43783 -29.5947 1.14628 40.2148 -0.0 -0.0 0.0 0.0 0.0 
3311.78 716.905 -778.132 -14.3699 53.4801 13.0903 2.82689 -0.218024 -0.122781 2.82688 -0.20977 -0.136406 2.82739 -0.184954 -0.168529 2.82741 -0.209249 -0.137204 -6.86658 -15.8475 0.359491 -6.8522 -29.7265 -2.87723 -0.0 0.0 -0.0 -0.711547 20.0645 1.29645 -7.56941 -46.4926 70.3108 0.538186 -14.9281 0.0705105 -6.26603 -0.262463 0.756394 0.827002 13.0956 10.6403 -0.0 0.0 -0.0 9.26119 5.81823 -18.2576 39.3802 -57.3415 -45.2269 0.187132 5.29631 -0.00865525 85.2657 4.45836 8.87831 -3.92565 -29.3564 9.60273 0.0 0.0 0.0 22.2458 12.6213 -3.23722 -29.1183 0.0768251 4.4201 39.7138 10.4887 -4.85503 -23.2209 0.0 0.0 -0.0 0.0 -0.0 23.1067 18.8665 2.13779 -38.4376 0.370374 -5.77832 6.71909 -28.7637 1.03177 40.086 -0.0 -0.0 0.0 0.0 0.0 
3297.22 715.036 -784.115 -13.4053 53.7255 12.5979 2.88298 -0.0942522 -0.0515332 2.88297 -0.090782 -0.0574263 2.88307 -0.0803712 -0.0712715 2.88307 -0.0906186 -0.0576839 -7.63985 -14.7129 0.489213 -7.69409 -27.796 -2.70354 -0.0 0.0 -0.0 0.354936 19.4517 2.79669 -11.1028 -46.5561 65.1556 0.514885 -14.3089 0.0646298 -6.47483 -0.272626 0.781085 0.485242 12.8477 8.36507 -0.0 0.0 -0.0 8.82944 5.13906 -17.3434 37.159 -58.8843 -45.0623 0.183149 5.18419 -0.00829146 85.2951 4.46189 8.87965 -4.09098 -29.2627 10.563 0.0 0.0 0.0 21.0174 13.3653 -3.5133 -29.1183 0.0768251 4.4201 36.9132 10.4547 -4.59857 -24.3266 0.0 0.0 -0.0 0.0 -0.0 26.3406 18.0344 0.90289 -41.0784 0.536793 -6.14857 4.38523 -29.7584 0.682067 40.1267 -0.0 -0.0 0.0 0.0 0.0 
3282.46 717.36 -788.46 -14.0102 54.2618 13.4429 3.05342 0.018005 -0.0458748 3.05342 0.0208876 -0.0446361 3.05341 0.0276696 -0.0407808 3.05341 0.0208817 -0.0446388 -8.38652 -13.3154 0.600293 -8.48338 -25.3369 -2.44945 -0.0 0.0 -0.0 1.48081 19.6561 4.48166 -12.3563 -46.355 61.994 0.473293 -13.1952 0.0547421 -6.33396 -0.265759 0.764431 0.174928 12.7323 6.34925 -0.0 0.0 -0.0 8.08111 4.57186 -15.7808 33.9757 -60.7346 -45.9232 0.207229 5.86132 -0.010609 85.1745 4.44743 8.87414 -4.16571 -28.8871 11.2166 0.0 0.0 0.0 20.5457 13.8354 -4.12766 -28.7018 0.0915956 4.35789 34.824 9.30727 -4.39046 -25.5159 0.0 0.0 -0.0 0.0 -0.0 28.2013 18.0323 0.924493 -43.1467 0.678995 -6.43307 4.54305 -28.8703 0.702123 40.1222 -0.0 -0.0 0.0 0.0 0.0 
3275.16 721.909 -790.618 -13.3557 55.9821 13.0273 2.91874 -0.112265 0.0398461 2.91873 -0.114573 0.0326217 2.91867 -0.118318 0.013855 2.91869 -0.114645 0.0323673 -8.57126 -13.18 0.832237 -8.67905 -25.261 -2.2315 -0.0 0.0 -0.0 1.70939 18.5901 4.75017 -11.8874 -46.4729 60.3335 0.502827 -13.9871 0.0616826 -6.46955 -0.272368 0.780461 0.038545 12.4294 5.36502 -0.0 0.0 -0.0 7.79575 4.27188 -15.1916 33.1197 -61.0082 -45.99 0.20452 5.78522 -0.0103341 85.2419 4.45551 8.87722 -4.18884 -28.9933 11.2744 0.0 0.0 0.0 19.4169 13.2322 -3.94629 -28.4362 0.100779 4.31816 35.3384 8.24756 -4.43611 -25.4275 0.0 0.0 -0.0 0.0 -0.0 29.2166 17.8395 -0.23418 -43.5183 0.705639 -6.48366 4.90234 -28.863 0.756921 40.2038 -0.0 -0.0 0.0 0.0 0.0 
